<svg xmlns="http://www.w3.org/2000/svg" viewBox="0 0 64 64" fill="none">
  <!-- Eraldia favicon: "e" itálica con gradiente y flecha (trazado, sin dependencia de fuentes) -->
  <defs>
    <linearGradient id="fav-e" x1="12.40" y1="14.59" x2="51.60" y2="49.41" gradientUnits="userSpaceOnUse">
      <stop offset="0%" stop-color="#0F766E"/>
      <stop offset="100%" stop-color="#F59E0B"/>
    </linearGradient>
  </defs>
  <rect x="0" y="0" width="64" height="64" rx="14" fill="#F8FAF9"/>
  <path d="M15.342726574597457 32.253411050822706Q15.342726574597457 32.253411050822706 16.98015182606725 31.610136844888146Q18.617577077537042 30.966862638953586 21.13219442800851 29.972711593418353Q23.646811778479975 28.978560547883124 26.317374390996186 27.925930029081115Q28.987937003512393 26.873299510279104 31.15167751438319 26.035093726788617Q33.31541802525399 25.196887943298126 34.212103282011256 24.846011103697457L33.705281180365844 25.43080583636524Q33.93919907343296 24.962970050231014 34.07565117772211 24.144257424496118Q34.212103282011256 23.32554479876122 34.212103282011256 21.96102375586973Q34.212103282011256 19.037050092530812 33.159472763209244 17.068241159215944Q32.10684224440723 15.099432225901076 30.39144436191507 15.099432225901076Q28.364155955333423 15.099432225901076 26.356360706507367 16.502939584303753Q24.348565457681314 17.90644694270643 22.55519494416678 20.518530081955863Q20.761824430652247 23.130613221205294 19.416796545516345 26.795326879256734Q18.071768660380442 30.460040537308174 17.409001296690292 34.9824531366057Q16.551302355444207 40.98634572532826 18.48112497324789 44.16373043948988Q20.410947591051574 47.34111515365151 24.19262019563657 47.34111515365151Q26.57078544181889 47.34111515365151 28.715032794934096 46.30797779260509Q30.859280148049297 45.27484043155867 32.63315750380824 43.169579393954656Q34.40703485956718 41.06431835635064 35.73256958694749 37.789467853411054Q35.81054221796986 37.59453627585513 35.88851484899223 37.49707048707717Q35.96648748001461 37.3996046982992 36.122432742059345 37.3996046982992Q36.200405373081715 37.3996046982992 36.2393916885929 37.55554996034394Q36.278378004104084 37.711495222388685 36.200405373081715 37.94541311545579Q34.913856961212595 41.53215414248486 32.78910276585298 44.10525096622311Q30.66434857049337 46.67834778996136 27.798854380421233 48.04286883285285Q24.9333601903491 49.40738987574434 21.385605478831216 49.40738987574434Q18.227713922425185 49.40738987574434 16.044480253798795 47.82844409754133Q13.861246585172406 46.249498319338315 12.945068170659546 43.11109992068788Q12.028889756146686 39.97270152203744 12.652670804325655 35.37231629171755Q13.198479221482252 31.161794216509513 14.933370261730008 27.39961476968011Q16.668261301977765 23.637435322850706 19.182878652449233 20.752447975022974Q21.697496002920698 17.867460627195246 24.6604559817708 16.230035375725457Q27.6234159606209 14.592610124255664 30.703334886004555 14.592610124255664Q33.0035275011645 14.592610124255664 34.58247327936751 15.723213274080043Q36.16141905757053 16.853816423904423 36.96063852554983 18.686173252930143Q37.75985799352914 20.518530081955863 37.72087167801796 22.662777435071067Q37.72087167801796 23.09162690569411 37.97428272884066 23.247572167738852Q38.22769377966337 23.40351742978359 38.77350219681996 23.286558483250037Q38.96843377437589 23.208585852227664 39.08539272090944 23.267065325494443Q39.202351667443 23.32554479876122 39.24133798295419 23.44250374529478Q39.28032429846537 23.59844900733952 39.202351667443004 23.676421638361894Q39.124379036420635 23.754394269384264 38.96843377437589 23.832366900406633Q38.656543250286404 23.94932584694019 36.804693263505094 24.65107952614153Q34.95284327672378 25.35283320534287 32.30177382196317 26.366477408633692Q29.650704367202547 27.380121611924515 26.72673070386363 28.491231603993306Q23.802757040524718 29.602341596062093 21.22966021678647 30.596492641597322Q18.656563393048227 31.590643687132555 17.03863129933403 32.214424735311525Q15.420699205619828 32.838205783490494 15.420699205619828 32.838205783490494Z" fill="url(#fav-e)"/>
  <g fill="none" stroke="url(#fav-e)" stroke-width="3.05" stroke-linecap="round" stroke-linejoin="round">
    <path d="M39.66 45.13 L51.11 39.77"/>
    <path d="M45.26 38.79 L51.60 39.52 L50.14 45.37"/>
  </g>
</svg>
